<?xml version="1.0" encoding="UTF-8" standalone="no"?>
<!DOCTYPE svg PUBLIC "-//W3C//DTD SVG 1.1//EN" "http://www.w3.org/Graphics/SVG/1.1/DTD/svg11.dtd">
<svg width="100%" height="100%" viewBox="0 0 1024 1024" version="1.1" xmlns="http://www.w3.org/2000/svg" xmlns:xlink="http://www.w3.org/1999/xlink" xml:space="preserve" xmlns:serif="http://www.serif.com/" style="fill-rule:evenodd;clip-rule:evenodd;stroke-linecap:round;stroke-linejoin:round;stroke-miterlimit:1.5;">
    <g transform="matrix(1.9009,0,0,1.9009,-769.726,-410.635)">
        <circle cx="674.272" cy="485.367" r="269.346" style="fill:rgb(91,192,145);"/>
    </g>
    <g transform="matrix(1.65025,0,0,1.65025,-600.719,-288.978)">
        <circle cx="674.272" cy="485.367" r="269.346" style="fill:none;stroke:white;stroke-width:6.4px;"/>
    </g>
    <g transform="matrix(-1.12474,0.798978,-0.732757,-1.03152,1591.21,498.161)">
        <path d="M720.076,559.27C746.797,494.796 757.049,430.655 729.133,363.808C718.04,337.247 699.549,304.362 677.501,281.196C650.359,252.678 634.537,240.602 634.537,240.602C634.537,240.602 700.349,259.513 739.072,311.352C794.098,385.018 791.467,457.624 780.483,500.529C769.39,543.854 748.818,588.183 719.994,622.578C681.543,668.462 660.837,682.608 611.617,715.635C622.17,674.377 611.156,621.165 607.589,606.758C602.293,585.361 596.217,564.447 592.424,541.446C585.581,499.944 584.317,462.224 600.262,423.807C606.655,408.403 613.198,393.025 631.095,375.549C667.032,343.985 707.07,351.358 707.07,351.358C707.07,351.358 724.125,362.972 732.458,436.755C736.526,472.773 733.582,525.222 720.076,559.27C719.323,561.091 718.557,562.907 717.778,564.724C718.588,562.914 719.353,561.095 720.076,559.27Z" style="fill:white;"/>
    </g>
</svg>
